{
  "accessors": [
    {
      "bufferView": 2,
      "componentType": 5126,
      "count": 4603,
      "max": [
        1.1415599584579468,
        0.15970809757709503,
        2.128079891204834
      ],
      "min": [
        -1.1415599584579468,
        -0.3432098925113678,
        0.0006269980221986771
      ],
      "type": "VEC3"
    },
    {
      "bufferView": 2,
      "byteOffset": 55236,
      "componentType": 5126,
      "count": 4603,
      "max": [
        0.9998341798782349,
        0.9999994039535522,
        0.9999991059303284
      ],
      "min": [
        -0.9998341798782349,
        -0.9999563097953796,
        -0.9999290108680725
      ],
      "type": "VEC3"
    },
    {
      "bufferView": 1,
      "componentType": 5126,
      "count": 4603,
      "max": [
        0.9963319897651672,
        0.9938539862632751
      ],
      "min": [
        0.006519000045955181,
        0.005168973933905363
      ],
      "type": "VEC2"
    },
    {
      "bufferView": 0,
      "componentType": 5125,
      "count": 12690,
      "type": "SCALAR"
    },
    {
      "bufferView": 2,
      "byteOffset": 110472,
      "componentType": 5126,
      "count": 136,
      "max": [
        0.32907798886299133,
        0.19744110107421875,
        1.902400016784668
      ],
      "min": [
        -0.32907798886299133,
        -0.09299076348543167,
        0.9576560854911804
      ],
      "type": "VEC3"
    },
    {
      "bufferView": 2,
      "byteOffset": 112104,
      "componentType": 5126,
      "count": 136,
      "max": [
        0.5918920636177063,
        0.999626874923706,
        0.09117531031370163
      ],
      "min": [
        -0.5918920636177063,
        -0.9999839067459106,
        -0.9682356715202332
      ],
      "type": "VEC3"
    },
    {
      "bufferView": 1,
      "byteOffset": 36824,
      "componentType": 5126,
      "count": 136,
      "max": [
        0.9886040091514587,
        0.998100996017456
      ],
      "min": [
        0.01360000018030405,
        0.016798019409179688
      ],
      "type": "VEC2"
    },
    {
      "bufferView": 0,
      "byteOffset": 50760,
      "componentType": 5125,
      "count": 540,
      "type": "SCALAR"
    },
    {
      "bufferView": 2,
      "byteOffset": 113736,
      "componentType": 5126,
      "count": 725,
      "max": [
        0.0856022909283638,
        -0.09911999106407166,
        2.1815249919891357
      ],
      "min": [
        -0.0849786177277565,
        -0.29926279187202454,
        2.0386669635772705
      ],
      "type": "VEC3"
    },
    {
      "bufferView": 2,
      "byteOffset": 122436,
      "componentType": 5126,
      "count": 725,
      "max": [
        0.9989206194877625,
        0.9988459944725037,
        0.9950138330459595
      ],
      "min": [
        -0.9992074966430664,
        -0.9990482330322266,
        -0.9985364079475403
      ],
      "type": "VEC3"
    },
    {
      "bufferView": 1,
      "byteOffset": 37912,
      "componentType": 5126,
      "count": 725,
      "max": [
        1.0005509853363037,
        0.9888730049133301
      ],
      "min": [
        0.01162698958069086,
        0.004678010940551758
      ],
      "type": "VEC2"
    },
    {
      "bufferView": 0,
      "byteOffset": 52920,
      "componentType": 5125,
      "count": 2436,
      "type": "SCALAR"
    }
  ],
  "asset": {
    "extras": {
      "author": "Jamessmartguy (https://sketchfab.com/skybaca1985)",
      "license": "CC-BY-4.0 (http://creativecommons.org/licenses/by/4.0/)",
      "source": "https://sketchfab.com/3d-models/bowler-hat-guy-with-doris-a2b088c839334649989a092cf5ad75ec",
      "title": "Bowler Hat Guy with Doris"
    },
    "generator": "Sketchfab-16.65.0",
    "version": "2.0"
  },
  "bufferViews": [
    {
      "buffer": 0,
      "byteLength": 62664,
      "name": "floatBufferViews",
      "target": 34963
    },
    {
      "buffer": 0,
      "byteLength": 43712,
      "byteOffset": 62664,
      "byteStride": 8,
      "name": "floatBufferViews",
      "target": 34962
    },
    {
      "buffer": 0,
      "byteLength": 131136,
      "byteOffset": 106376,
      "byteStride": 12,
      "name": "floatBufferViews",
      "target": 34962
    }
  ],
  "buffers": [
    {
      "byteLength": 237512,
      "uri": "scene.bin"
    }
  ],
  "extensionsRequired": [
    "KHR_materials_pbrSpecularGlossiness"
  ],
  "extensionsUsed": [
    "KHR_materials_pbrSpecularGlossiness"
  ],
  "images": [
    {
      "uri": "textures/Material.001_diffuse.png"
    },
    {
      "uri": "textures/Material.002_diffuse.png"
    },
    {
      "uri": "textures/mat_57.002_diffuse.png"
    }
  ],
  "materials": [
    {
      "doubleSided": true,
      "extensions": {
        "KHR_materials_pbrSpecularGlossiness": {
          "diffuseFactor": [
            1.0,
            1.0,
            1.0,
            1.0
          ],
          "diffuseTexture": {
            "index": 0
          },
          "glossinessFactor": 0.4,
          "specularFactor": [
            0.0,
            0.0,
            0.0
          ]
        }
      },
      "name": "Material.001"
    },
    {
      "doubleSided": true,
      "extensions": {
        "KHR_materials_pbrSpecularGlossiness": {
          "diffuseFactor": [
            1.0,
            1.0,
            1.0,
            1.0
          ],
          "diffuseTexture": {
            "index": 1
          },
          "glossinessFactor": 0.4,
          "specularFactor": [
            0.0,
            0.0,
            0.0
          ]
        }
      },
      "name": "Material.002"
    },
    {
      "doubleSided": true,
      "extensions": {
        "KHR_materials_pbrSpecularGlossiness": {
          "diffuseFactor": [
            1.0,
            1.0,
            1.0,
            1.0
          ],
          "diffuseTexture": {
            "index": 2
          },
          "glossinessFactor": 0.4,
          "specularFactor": [
            0.0,
            0.0,
            0.0
          ]
        }
      },
      "name": "mat_57.002"
    }
  ],
  "meshes": [
    {
      "name": "Object_0",
      "primitives": [
        {
          "attributes": {
            "NORMAL": 1,
            "POSITION": 0,
            "TEXCOORD_0": 2
          },
          "indices": 3,
          "material": 0,
          "mode": 4
        }
      ]
    },
    {
      "name": "Object_1",
      "primitives": [
        {
          "attributes": {
            "NORMAL": 5,
            "POSITION": 4,
            "TEXCOORD_0": 6
          },
          "indices": 7,
          "material": 1,
          "mode": 4
        }
      ]
    },
    {
      "name": "Object_2",
      "primitives": [
        {
          "attributes": {
            "NORMAL": 9,
            "POSITION": 8,
            "TEXCOORD_0": 10
          },
          "indices": 11,
          "material": 2,
          "mode": 4
        }
      ]
    }
  ],
  "nodes": [
    {
      "children": [
        1
      ],
      "matrix": [
        1.0,
        0.0,
        0.0,
        0.0,
        0.0,
        2.220446049250313e-16,
        -1.0,
        0.0,
        0.0,
        1.0,
        2.220446049250313e-16,
        0.0,
        0.0,
        0.0,
        0.0,
        1.0
      ],
      "name": "Sketchfab_model"
    },
    {
      "children": [
        2,
        3,
        4
      ],
      "name": "scene.obj.cleaner.materialmerger.gles"
    },
    {
      "mesh": 0,
      "name": "Object_2"
    },
    {
      "mesh": 1,
      "name": "Object_3"
    },
    {
      "mesh": 2,
      "name": "Object_4"
    }
  ],
  "samplers": [
    {
      "magFilter": 9729,
      "minFilter": 9987,
      "wrapS": 10497,
      "wrapT": 10497
    }
  ],
  "scene": 0,
  "scenes": [
    {
      "name": "Sketchfab_Scene",
      "nodes": [
        0
      ]
    }
  ],
  "textures": [
    {
      "sampler": 0,
      "source": 0
    },
    {
      "sampler": 0,
      "source": 1
    },
    {
      "sampler": 0,
      "source": 2
    }
  ]
}
